<svg xmlns="http://www.w3.org/2000/svg" width="40.003" height="39.938" viewBox="0 0 40.003 39.938">
    <g transform="translate(-3.997 -4.25)">
        <circle data-name="Ellipse 280" cx="1.5" cy="1.5" r="1.5" transform="translate(40.29 27.83)"/>
        <circle data-name="Ellipse 281" cx="1.5" cy="1.5" r="1.5" transform="translate(41 22.75)"/>
        <circle data-name="Ellipse 282" cx="1.5" cy="1.5" r="1.5" transform="translate(40.2 17.25)"/>
        <circle data-name="Ellipse 283" cx="1.5" cy="1.5" r="1.5" transform="translate(37.55 11.92)"/>
        <circle data-name="Ellipse 284" cx="1.5" cy="1.5" r="1.5" transform="translate(33.46 7.91)"/>
        <circle data-name="Ellipse 285" cx="1.5" cy="1.5" r="1.5" transform="translate(38.32 32.33)"/>
        <circle data-name="Ellipse 286" cx="1.5" cy="1.5" r="1.5" transform="translate(28.3 5.19)"/>
        <circle data-name="Ellipse 287" cx="1.5" cy="1.5" r="1.5" transform="translate(22.5 4.25)"/>
        <path data-name="Path 4094" d="M13.93 22.84a1.593 1.593 0 0 0 0 2.25l5.8 5.84a1.871 1.871 0 0 0 2.66 0l11.68-11.68a1.6 1.6 0 0 0-.01-2.27l-.02-.02a1.6 1.6 0 0 0-2.24.01L21.06 27.71l-4.87-4.87a1.593 1.593 0 0 0-2.25 0z"/>
        <path data-name="Path 4095" d="M34.85 37.24A16.971 16.971 0 0 1 7.11 22.25 17.086 17.086 0 0 1 18.7 8.05a1.57 1.57 0 0 0 1.14-1.64 1.52 1.52 0 0 0-1.96-1.26 19.99 19.99 0 0 0-13.7 21.72 19.975 19.975 0 0 0 32.57 12.7 1.511 1.511 0 0 0 .06-2.27 1.493 1.493 0 0 0-1.97-.07z"/>
    </g>
</svg>
