<svg xmlns="http://www.w3.org/2000/svg" width="39.998" height="27.284" viewBox="0 0 39.998 27.284">
    <path data-name="Path 4106" d="M24 27.96a4.09 4.09 0 1 1 4.09-4.09A4.089 4.089 0 0 1 24 27.96z" style="fill:none" transform="translate(-4.012 -10.23)"/>
    <path data-name="Path 4107" d="M27.348 13.64a7.36 7.36 0 1 0-7.36 7.36 7.36 7.36 0 0 0 7.36-7.36zm-3.27 0a4.09 4.09 0 1 1-4.09-4.09 4.089 4.089 0 0 1 4.09 4.09z"/>
    <path data-name="Path 4108" d="M12.128 21.81a17.86 17.86 0 0 1-8.18-8.18 17.864 17.864 0 0 1 32.08 0 17.725 17.725 0 0 1-2.43 3.69 1.821 1.821 0 0 0 2.74 2.4 21.425 21.425 0 0 0 3.66-6.08 21.483 21.483 0 0 0-40 0 21.474 21.474 0 0 0 27.85 12.15 20.313 20.313 0 0 0 2.06-.95 1.828 1.828 0 0 0 .45-2.94 1.792 1.792 0 0 0-2.08-.32 17.828 17.828 0 0 1-16.15.24z"/>
</svg>
