<svg xmlns="http://www.w3.org/2000/svg" width="40.01" height="29.905" viewBox="0 0 40.01 29.905">
    <path data-name="Path 4109" d="M7.99.502a1.725 1.725 0 0 0-2.44 2.44l2.21 2.21a21.42 21.42 0 0 0-7.76 9.8 21.478 21.478 0 0 0 27.85 12.15c.44-.17.86-.37 1.29-.58l2.88 2.88a1.725 1.725 0 0 0 2.44-2.44zm8.19 13.06 5.21 5.21a3.991 3.991 0 0 1-1.39.26 4.089 4.089 0 0 1-4.09-4.09 4.035 4.035 0 0 1 .26-1.39zm-4.03 9.56a17.86 17.86 0 0 1-8.18-8.18 17.721 17.721 0 0 1 6.42-7.18l3.35 3.35a7.251 7.251 0 0 0-1.09 3.83 7.36 7.36 0 0 0 7.36 7.36 7.251 7.251 0 0 0 3.83-1.09l2.53 2.53a17.8 17.8 0 0 1-14.22-.62zM20 1.312a21.142 21.142 0 0 0-4.98.59 1.751 1.751 0 0 0-.82 2.93l.11.11a1.775 1.775 0 0 0 1.67.46 17.912 17.912 0 0 1 20.06 9.55 17.577 17.577 0 0 1-3.87 5.2 1.816 1.816 0 1 0 2.44 2.69 21.305 21.305 0 0 0 5.4-7.89 21.52 21.52 0 0 0-20-13.64z"/>
    <path data-name="Path 4110" d="M20.74 10.952a4.063 4.063 0 0 1 3.27 3.32 1.5 1.5 0 0 0 .38.8l.13.13a1.613 1.613 0 0 0 2.75-1.32 8.215 8.215 0 0 0-.29-1.24 7.346 7.346 0 0 0-5.96-4.97 1.587 1.587 0 0 0-1.31 2.7l.16.16a1.552 1.552 0 0 0 .87.42z"/>
</svg>
