<svg xmlns="http://www.w3.org/2000/svg" width="39.98" height="40.495" viewBox="0 0 39.98 40.495">
    <g transform="translate(-4.02 -3.515)">
        <path data-name="Path 4101" d="M26.46 40.81a15.764 15.764 0 0 1-8.41-.98A17.3 17.3 0 0 1 7.01 24.35a16.958 16.958 0 0 1 8.48-15.02l-.11.3a1.5 1.5 0 1 0 2.82 1.04l1.59-4.3a.916.916 0 0 0-.54-1.17l-4.3-1.59a1.5 1.5 0 1 0-1.04 2.82l.39.14a19.97 19.97 0 0 0 12.63 37.22 1.5 1.5 0 0 0 1.24-1.83 1.488 1.488 0 0 0-1.68-1.13z"/>
        <circle data-name="Ellipse 291" cx="1.5" cy="1.5" r="1.5" transform="translate(40.29 27.58)"/>
        <circle data-name="Ellipse 292" cx="1.5" cy="1.5" r="1.5" transform="translate(41 22.5)"/>
        <circle data-name="Ellipse 293" cx="1.5" cy="1.5" r="1.5" transform="translate(40.2 17.01)"/>
        <circle data-name="Ellipse 294" cx="1.5" cy="1.5" r="1.5" transform="translate(37.55 11.67)"/>
        <circle data-name="Ellipse 295" cx="1.5" cy="1.5" r="1.5" transform="translate(33.46 7.66)"/>
        <circle data-name="Ellipse 296" cx="1.5" cy="1.5" r="1.5" transform="translate(38.32 32.09)"/>
        <circle data-name="Ellipse 297" cx="1.5" cy="1.5" r="1.5" transform="translate(35.15 35.99)"/>
        <circle data-name="Ellipse 298" cx="1.5" cy="1.5" r="1.5" transform="translate(28.3 4.95)"/>
        <circle data-name="Ellipse 299" cx="1.5" cy="1.5" r="1.5" transform="translate(22.5 4)"/>
        <circle data-name="Ellipse 300" cx="1.5" cy="1.5" r="1.5" transform="translate(30.7 39.09)"/>
        <path data-name="Path 4102" d="m33.88 14.28-10.89 9.45a1.5 1.5 0 0 0 2.12 2.12L34.4 14.8a.366.366 0 0 0-.52-.51z"/>
    </g>
</svg>
