<svg xmlns="http://www.w3.org/2000/svg" width="36.853" height="40" viewBox="0 0 36.853 40">
    <defs>
        <clipPath id="4z7ihjquaa">
            <path data-name="Rectangle 1855" style="fill:none" d="M0 0h36.853v40H0z"/>
        </clipPath>
    </defs>
    <g data-name="Group 6271" style="clip-path:url(#4z7ihjquaa)">
        <path data-name="Path 4216" d="M.469 23.41a5.072 5.072 0 0 0 4.86 3.029h2.826v.009a23.218 23.218 0 0 0-.968 6.561 9.694 9.694 0 0 0 .79 4.4A3.963 3.963 0 0 0 11.513 40a3.948 3.948 0 0 0 3.821-3.677 4.826 4.826 0 0 1 1.447-2.865c2.458-2.49 7.569-7.652 7.679-7.754a3.4 3.4 0 0 0 2.623.872c1.224 0 6.15.011 6.585 0a3.292 3.292 0 0 0 2.418-1.38 3.572 3.572 0 0 0 .738-2.636V3.466A3.556 3.556 0 0 0 33.263 0c-1-.022-5.537.05-6.783.05a2.869 2.869 0 0 0-2.222 1.01 1.123 1.123 0 0 1-.964.362H7.044c-.389.008-.819.019-1.212.06A3.836 3.836 0 0 0 2.381 4.56a23.771 23.771 0 0 0-.394 2.54 1.845 1.845 0 0 0 .3 1.407 1.43 1.43 0 0 0 .994.535c.9.1 1.562-.519 1.727-1.584 0 0 .108-.722.292-1.782.175-1.036.336-1.167 1.427-1.167h16.44V7.983c0 4.777 0 9.552-.017 14.293a1.113 1.113 0 0 1-.322.683q-1.72 1.759-3.456 3.508c-1.648 1.668-3.3 3.337-4.916 5.01a7.166 7.166 0 0 0-2.167 4.477.914.914 0 0 1-.709.951.791.791 0 0 1-.807-.7 12.887 12.887 0 0 1-.523-2.818 19.808 19.808 0 0 1 1.35-7.576 1.869 1.869 0 0 0-.057-1.757 1.859 1.859 0 0 0-1.631-.654s-4.91 0-5.026-.013a2.032 2.032 0 0 1-1.361-.778 2.056 2.056 0 0 1-.41-1.538c.025-.383.816-7.436.816-7.436A1.486 1.486 0 0 0 2.7 11.863a1.63 1.63 0 0 0-1.778 1.309s-.574 5.083-.78 6.582a6.093 6.093 0 0 0 .327 3.656m23.976 1.735zm1.767-2.539.006-18.536c0-.935.1-1.042 1.013-1.042h5.683c.7 0 .843.142.843.833q.015 9.416 0 18.833c0 .677-.154.823-.868.823h-5.753c-.787 0-.924-.139-.924-.913M3.528 13.568z"/>
    </g>
</svg>
