<svg xmlns="http://www.w3.org/2000/svg" width="36" height="40" viewBox="0 0 36 40">
    <g transform="translate(-6 -4)">
        <path data-name="Path 4098" d="M39 40.61a.39.39 0 0 1-.39.39H9.39a.39.39 0 0 1-.39-.39V7.39A.39.39 0 0 1 9.39 7h29.22a.39.39 0 0 1 .39.39V29.5a1.5 1.5 0 0 0 3 0V7.39A3.393 3.393 0 0 0 38.61 4H9.39A3.393 3.393 0 0 0 6 7.39v33.22A3.393 3.393 0 0 0 9.39 44h29.22A3.393 3.393 0 0 0 42 40.61V35.5a1.5 1.5 0 0 0-3 0z"/>
        <path data-name="Path 4099" d="M33.5 15h-12a1.5 1.5 0 0 0 0 3h12a1.5 1.5 0 0 0 0-3z"/>
        <circle data-name="Ellipse 288" cx="1.5" cy="1.5" r="1.5" transform="translate(13 15)"/>
        <circle data-name="Ellipse 289" cx="1.5" cy="1.5" r="1.5" transform="translate(13 23)"/>
        <circle data-name="Ellipse 290" cx="1.5" cy="1.5" r="1.5" transform="translate(13 31)"/>
        <path data-name="Path 4100" d="M33.5 23h-12a1.5 1.5 0 0 0 0 3h12a1.5 1.5 0 0 0 0-3zm-4 8h-8a1.5 1.5 0 0 0 0 3h8a1.5 1.5 0 0 0 0-3z"/>
    </g>
</svg>
