<svg xmlns="http://www.w3.org/2000/svg" width="40" height="40" viewBox="0 0 40 40">
    <defs>
        <clipPath id="h5s4rge49a">
            <path data-name="Rectangle 1864" style="fill:none" d="M0 0h40v40H0z"/>
        </clipPath>
    </defs>
    <g data-name="Group 6281" style="clip-path:url(#h5s4rge49a)">
        <path data-name="Path 4246" d="M20 10c-3.683 0-5.593 2.13-5.593 3.6a1.307 1.307 0 0 0 .458 1.115 1.233 1.233 0 0 0 1.579-.168A3.7 3.7 0 0 1 20 13c1.363.081 2 .745 2 2 0 1.473-1.471 2.13-2.273 3A6.3 6.3 0 0 0 18 22c-.013 1.092.424 2 1.542 2 1.405 0 1.392-1.487 1.458-2 .181-1.4 1.015-2.069 2-3a5.59 5.59 0 0 0 2-5 4.72 4.72 0 0 0-5-4"/>
        <path data-name="Path 4247" d="M20 37a17.012 17.012 0 1 1 15.46-9.939 1.478 1.478 0 0 0 .518 1.825 1.5 1.5 0 0 0 2.217-.6 20.047 20.047 0 1 0-3.663 5.437 1.5 1.5 0 0 0-.259-2.267 1.48 1.48 0 0 0-1.907.194A16.948 16.948 0 0 1 20 37"/>
        <path data-name="Path 4248" d="M20.931 27.952a1.5 1.5 0 1 1-1.5-1.5 1.5 1.5 0 0 1 1.5 1.5"/>
    </g>
</svg>
