<svg xmlns="http://www.w3.org/2000/svg" width="42.354" height="37.197" viewBox="0 0 42.354 37.197">
    <path data-name="Path 4111" d="M21.174 26.437a1.655 1.655 0 0 0-1.18.45 1.494 1.494 0 0 0-.47 1.15 1.693 1.693 0 0 0 .47 1.2 1.642 1.642 0 0 0 2.36 0 1.652 1.652 0 0 0 .47-1.2 1.53 1.53 0 0 0-.47-1.15 1.655 1.655 0 0 0-1.18-.45zm0-15.7a1.652 1.652 0 0 0-1.65 1.65v9.9a1.65 1.65 0 1 0 3.3 0v-9.9a1.652 1.652 0 0 0-1.65-1.65z"/>
    <path data-name="Path 4112" d="M37.554 25.177a1.5 1.5 0 0 0-.54 2.07l1.99 3.33a2.388 2.388 0 0 1-2.05 3.61H5.384a2.385 2.385 0 0 1-2.05-3.61l15.79-26.41a2.391 2.391 0 0 1 4.1 0l10.72 17.93a1.502 1.502 0 0 0 2.58-1.54l-10.6-17.73a5.628 5.628 0 0 0-4.47-2.82 5.356 5.356 0 0 0-4.9 2.62l-15.7 26.26a5.613 5.613 0 0 0-.77 3.89 5.4 5.4 0 0 0 5.3 4.42h31.43a5.529 5.529 0 0 0 3.45-1.12 5.4 5.4 0 0 0 1.33-7.03l-1.99-3.33a1.506 1.506 0 0 0-2.04-.53z"/>
</svg>
