<svg xmlns="http://www.w3.org/2000/svg" width="37.335" height="40" viewBox="0 0 37.335 40">
    <defs>
        <clipPath id="gjpqh1mmva">
            <path data-name="Rectangle 1853" style="fill:none" d="M0 0h37.335v40H0z"/>
        </clipPath>
    </defs>
    <g data-name="Group 6267" style="clip-path:url(#gjpqh1mmva)">
        <path data-name="Path 4212" d="m22.923 26.804-6.144-3.547a8.749 8.749 0 1 0-2.207 3.055l6.474 3.749a1.876 1.876 0 1 0 1.875-3.25m-14.168-2a14.547 14.547 0 1 1 .012-.007"/>
        <path data-name="Path 4213" d="m20.793 14.136 6.142-3.544a6.149 6.149 0 1 0-1.79-3.292l-6.242 3.592a1.876 1.876 0 0 0 1.875 3.25M31.172 3.733a2.422 2.422 0 1 1-2.422 2.422 2.422 2.422 0 0 1 2.422-2.422"/>
        <path data-name="Path 4214" d="M31.182 27.702a6.149 6.149 0 1 0 6.149 6.153 6.149 6.149 0 0 0-6.149-6.153zm0 8.571a2.422 2.422 0 1 1 2.422-2.418 2.422 2.422 0 0 1-2.422 2.422"/>
    </g>
</svg>
