<svg xmlns="http://www.w3.org/2000/svg" width="40" height="40" viewBox="0 0 40 40">
    <defs>
        <clipPath id="xqch7lwspa">
            <path data-name="Rectangle 1858" style="fill:none" d="M0 0h40v40H0z"/>
        </clipPath>
    </defs>
    <g data-name="Group 6275" style="clip-path:url(#xqch7lwspa)">
        <path data-name="Path 4222" d="M32 32a16.366 16.366 0 0 1-12 5 16.366 16.366 0 0 1-12-5 16.366 16.366 0 0 1-5-12A16.366 16.366 0 0 1 8 8a16.366 16.366 0 0 1 12-5 16.366 16.366 0 0 1 12 5 16.366 16.366 0 0 1 5 12 16.661 16.661 0 0 1-1.343 6.711 1.508 1.508 0 0 0 2.763 1.209l.03-.07A19.877 19.877 0 0 0 40 20a19.939 19.939 0 0 0-5.8-14.25 19.528 19.528 0 0 0-6.35-4.225A20.148 20.148 0 0 0 20 0a20.279 20.279 0 0 0-7.9 1.525A19.357 19.357 0 0 0 1.525 12.1 20.279 20.279 0 0 0 0 20a20.148 20.148 0 0 0 1.525 7.85A19.528 19.528 0 0 0 5.75 34.2 19.939 19.939 0 0 0 20 40a19.937 19.937 0 0 0 14.2-5.8q.388-.388.748-.8a1.553 1.553 0 0 0-2.356-2.024q-.285.318-.592.626"/>
        <path data-name="Path 4223" d="M20 23.075a1.5 1.5 0 0 1-1.5-1.5v-9a1.5 1.5 0 1 1 3 0v9a1.5 1.5 0 0 1-1.5 1.5"/>
        <path data-name="Path 4224" d="M21.068 28.47a1.479 1.479 0 0 1-2.136 0 1.524 1.524 0 0 1-.432-1.09 1.375 1.375 0 0 1 .432-1.045 1.6 1.6 0 0 1 2.136 0 1.375 1.375 0 0 1 .432 1.045 1.524 1.524 0 0 1-.432 1.09"/>
    </g>
</svg>
