<svg xmlns="http://www.w3.org/2000/svg" width="39.994" height="40" viewBox="0 0 39.994 40">
    <defs>
        <clipPath id="0td4h7qq7a">
            <path data-name="Rectangle 1852" style="fill:none" d="M0 0h39.994v40H0z"/>
        </clipPath>
    </defs>
    <g data-name="Group 6265" style="clip-path:url(#0td4h7qq7a)">
        <path data-name="Path 4211" d="M39.933 31.286a9.013 9.013 0 0 0-1.962-4.712 15.768 15.768 0 0 0-6.026-4.233 1.4 1.4 0 0 0-1.282.108 1.559 1.559 0 0 0 .137 2.781 15.723 15.723 0 0 1 3.986 2.5 6 6 0 0 1 2.024 3.8 30.849 30.849 0 0 1 .061 3.626 1.629 1.629 0 0 1-1.621 1.674H4.815a1.549 1.549 0 0 1-1.637-1.638c0-.9-.015-1.816 0-2.717a6.526 6.526 0 0 1 2.16-4.805 15.7 15.7 0 0 1 4.112-2.533 25.684 25.684 0 0 1 10.073-2.024 15.8 15.8 0 0 0 2.952-.262A11.553 11.553 0 0 0 22.691.324C22.15.2 21.594.108 21.038 0h-2.179c-.478.108-.973.077-1.467.2a11.445 11.445 0 0 0-6.134 3.692A11.275 11.275 0 0 0 8.446 12.7a11.345 11.345 0 0 0 3.816 7.54 1.106 1.106 0 0 1 .371.386 1.475 1.475 0 0 1-.6.2A22.68 22.68 0 0 0 4.6 24.148a10.622 10.622 0 0 0-3.322 3.415 8.057 8.057 0 0 0-1.22 3.584c-.093 1.5-.047 2.982-.031 4.481A4.528 4.528 0 0 0 4.414 40h31.24a3.815 3.815 0 0 0 1.819-.448 4.467 4.467 0 0 0 2.522-3.569zM20.018 3.121a8.432 8.432 0 1 1-8.42 8.436 8.452 8.452 0 0 1 8.42-8.436"/>
    </g>
</svg>
