<svg xmlns="http://www.w3.org/2000/svg" width="33.492" height="40" viewBox="0 0 33.492 40">
    <defs>
        <clipPath id="je9xjtjc6a">
            <path data-name="Rectangle 1861" style="fill:none" d="M0 0h33.492v40H0z"/>
        </clipPath>
    </defs>
    <g data-name="Group 6278" style="clip-path:url(#je9xjtjc6a)">
        <path data-name="Path 4236" d="M10.952 18.254H9.667a4.983 4.983 0 1 0-.049 3.651h1.334a1.826 1.826 0 0 0 0-3.651M5 21.349A1.349 1.349 0 1 1 6.349 20 1.35 1.35 0 0 1 5 21.349"/>
        <path data-name="Path 4237" d="M23.731 21.905c.048 0 .088-.024.135-.028a5.014 5.014 0 1 0-.046-3.606c-.031 0-.058-.018-.089-.018h-4.024V7.75H24a1.8 1.8 0 0 0 .292-.058 5 5 0 1 0-.707-3.592h-5.7a1.825 1.825 0 0 0-1.825 1.825V35.3a1.824 1.824 0 0 0 1.825 1.825h6.1a5.008 5.008 0 1 0-.229-3.65h-4.05v-11.57zm4.761-3.254A1.349 1.349 0 1 1 27.144 20a1.351 1.351 0 0 1 1.348-1.349m0-15A1.349 1.349 0 1 1 27.144 5a1.352 1.352 0 0 1 1.348-1.35m0 30A1.348 1.348 0 1 1 27.144 35a1.352 1.352 0 0 1 1.348-1.349"/>
    </g>
</svg>
