<svg xmlns="http://www.w3.org/2000/svg" width="34" height="40" viewBox="0 0 34 40">
    <defs>
        <clipPath id="l340reahya">
            <path data-name="Rectangle 1866" style="fill:none" d="M0 0h34v40H0z"/>
        </clipPath>
    </defs>
    <g data-name="Group 6333" style="clip-path:url(#l340reahya)">
        <path data-name="Path 4250" d="M31 36.608a.392.392 0 0 1-.392.392H3.392A.392.392 0 0 1 3 36.608V3.391A.391.391 0 0 1 3.392 3h27.216a.391.391 0 0 1 .392.391V25.5a1.5 1.5 0 0 0 3 0V3.391A3.391 3.391 0 0 0 30.608 0H3.392A3.391 3.391 0 0 0 0 3.391v33.217A3.392 3.392 0 0 0 3.392 40h27.216A3.392 3.392 0 0 0 34 36.608V31.5a1.5 1.5 0 0 0-3 0z"/>
        <path data-name="Path 4251" d="M25.5 11h-10a1.5 1.5 0 0 0 0 3h10a1.5 1.5 0 0 0 0-3"/>
        <path data-name="Path 4252" d="M8.5 11a1.5 1.5 0 1 0 1.5 1.5A1.5 1.5 0 0 0 8.5 11"/>
        <path data-name="Path 4253" d="M25.5 19h-10a1.5 1.5 0 0 0 0 3h10a1.5 1.5 0 0 0 0-3"/>
        <path data-name="Path 4254" d="M21.5 27h-6a1.5 1.5 0 0 0 0 3h6a1.5 1.5 0 0 0 0-3"/>
        <path data-name="Path 4255" d="M11.944 25.465A1.413 1.413 0 0 0 10 25.411l-1.529 1.367-.48-.41a1.409 1.409 0 1 0-1.83 2.144l1.28 1.1a1.59 1.59 0 0 0 2.094-.012l2.352-2.082a1.412 1.412 0 0 0 .057-2.052"/>
        <path data-name="Path 4256" d="M11.944 17.465A1.414 1.414 0 0 0 10 17.411l-1.529 1.367-.48-.41a1.41 1.41 0 1 0-1.83 2.145l1.28 1.1a1.591 1.591 0 0 0 2.094-.013l2.352-2.083a1.412 1.412 0 0 0 .057-2.052"/>
    </g>
</svg>
