<svg xmlns="http://www.w3.org/2000/svg" width="40.01" height="40" viewBox="0 0 40.01 40">
    <path data-name="Path 4092" d="M38.45 12.1a19.836 19.836 0 0 0-4.25-6.35 19.621 19.621 0 0 0-6.35-4.23A20.081 20.081 0 0 0 20 0a20.513 20.513 0 0 0-7.9 1.52A19.417 19.417 0 0 0 1.52 12.1 20.222 20.222 0 0 0 0 20a20.154 20.154 0 0 0 1.52 7.85 19.621 19.621 0 0 0 4.23 6.35 19.836 19.836 0 0 0 6.35 4.25A20.059 20.059 0 0 0 20 40a19.937 19.937 0 0 0 14.2-5.8c.26-.26.51-.53.75-.8a1.541 1.541 0 0 0-.41-2.34 1.557 1.557 0 0 0-1.94.32c-.19.21-.39.42-.59.63a16.368 16.368 0 0 1-12 5 16.368 16.368 0 0 1-12-5 16.368 16.368 0 0 1-5-12 16.368 16.368 0 0 1 5-12 16.368 16.368 0 0 1 12-5 16.368 16.368 0 0 1 12 5 16.368 16.368 0 0 1 5 12 16.716 16.716 0 0 1-1.34 6.71 1.507 1.507 0 0 0 2.76 1.21l.03-.07a19.92 19.92 0 0 0 1.55-7.85 20.166 20.166 0 0 0-1.55-7.9z"/>
    <path data-name="Path 4093" d="M28.55 11.45a1.485 1.485 0 0 0-2.1 0L20 17.9l-6.45-6.45a1.485 1.485 0 1 0-2.1 2.1L17.9 20l-6.45 6.45a1.485 1.485 0 1 0 2.1 2.1L20 22.1l6.45 6.45a1.485 1.485 0 1 0 2.1-2.1L22.1 20l6.45-6.45a1.485 1.485 0 0 0 0-2.1z"/>
</svg>
