<svg xmlns="http://www.w3.org/2000/svg" width="40" height="40" viewBox="0 0 40 40">
    <defs>
        <clipPath id="7kzdy85oba">
            <path data-name="Rectangle 1857" style="fill:none" d="M0 0h40v40H0z"/>
        </clipPath>
    </defs>
    <g data-name="Group 6274" style="clip-path:url(#7kzdy85oba)">
        <path data-name="Path 4220" d="M27.786 13.815 17.05 24.551l-4.873-4.874a1.593 1.593 0 0 0-2.257 2.25l5.8 5.838a1.876 1.876 0 0 0 2.658 0L30.061 16.09a1.594 1.594 0 0 0-.012-2.266l-.022-.021a1.593 1.593 0 0 0-2.241.012"/>
        <path data-name="Path 4221" d="M38.45 12.1a19.852 19.852 0 0 0-4.25-6.35 19.528 19.528 0 0 0-6.35-4.225A20.148 20.148 0 0 0 20 0a20.279 20.279 0 0 0-7.9 1.525A19.357 19.357 0 0 0 1.525 12.1 20.279 20.279 0 0 0 0 20a20.148 20.148 0 0 0 1.525 7.85A19.528 19.528 0 0 0 5.75 34.2 19.939 19.939 0 0 0 20 40a19.937 19.937 0 0 0 14.2-5.8q.388-.388.748-.8a1.553 1.553 0 0 0-2.356-2.024q-.285.318-.592.626a16.366 16.366 0 0 1-12 5A16.366 16.366 0 0 1 8 32a16.366 16.366 0 0 1-5-12A16.366 16.366 0 0 1 8 8a16.366 16.366 0 0 1 12-5 16.366 16.366 0 0 1 12 5 16.366 16.366 0 0 1 5 12 16.661 16.661 0 0 1-1.343 6.711 1.508 1.508 0 0 0 2.763 1.209l.03-.07A19.877 19.877 0 0 0 40 20a20.006 20.006 0 0 0-1.55-7.9"/>
    </g>
</svg>
