<svg xmlns="http://www.w3.org/2000/svg" width="40" height="35.641" viewBox="0 0 40 35.641">
    <path data-name="Path 4103" d="M38.5 17.641a1.5 1.5 0 0 0-1.5 1.5v1a1.5 1.5 0 0 0 3 0v-1a1.5 1.5 0 0 0-1.5-1.5z"/>
    <path data-name="Path 4104" d="M38.5 24.641a1.5 1.5 0 0 0-1.5 1.5v6.11a.39.39 0 0 1-.39.39H3.39a.39.39 0 0 1-.39-.39v-13.11a1.5 1.5 0 0 0-3 0v13.11a3.393 3.393 0 0 0 3.39 3.39h33.22a3.393 3.393 0 0 0 3.39-3.39v-6.11a1.5 1.5 0 0 0-1.5-1.5z"/>
    <path data-name="Path 4105" d="m16.09 7.311 2.38-2.38v18.21a1.5 1.5 0 0 0 3 0V4.861l2.45 2.45a1.5 1.5 0 0 0 2.12-2.12L21.4.581a2 2 0 0 0-2.82 0l-4.61 4.6a1.5 1.5 0 0 0 2.12 2.12z"/>
</svg>
