<svg xmlns="http://www.w3.org/2000/svg" width="32" height="40" viewBox="0 0 32 40">
    <defs>
        <clipPath id="6p7ijyjvha">
            <path data-name="Rectangle 1865" style="fill:none" d="M0 0h32v40H0z"/>
        </clipPath>
    </defs>
    <g data-name="Group 6332" style="clip-path:url(#6p7ijyjvha)">
        <path data-name="Path 4249" d="M30.5 27a1.5 1.5 0 0 0 1.5-1.5V3.392A3.392 3.392 0 0 0 28.608 0H3.392A3.392 3.392 0 0 0 0 3.392v33.216A3.392 3.392 0 0 0 3.392 40h25.216A3.392 3.392 0 0 0 32 36.608V31.5a1.5 1.5 0 0 0-3 0v5.108a.391.391 0 0 1-.392.392H3.392A.391.391 0 0 1 3 36.608V3.392A.391.391 0 0 1 3.392 3H6v12.879a2.121 2.121 0 0 0 3.621 1.5L12 15l2.379 2.379a2.121 2.121 0 0 0 3.621-1.5V3h10.608a.391.391 0 0 1 .392.392V25.5a1.5 1.5 0 0 0 1.5 1.5M15 14l-1-1-1.293-1.293a1 1 0 0 0-1.414 0L10 13l-1 1V3h6z"/>
    </g>
</svg>
