<svg xmlns="http://www.w3.org/2000/svg" width="40" height="36.509" viewBox="0 0 40 36.509">
    <path data-name="Path 4096" d="M40 20.035v-5.731a1.532 1.532 0 1 0-3.051.28v18.834H3.091V4.561l3.1 3.081c-.16 0-.31 0-.47.01a1.475 1.475 0 0 0-1.39 1.36 1.514 1.514 0 0 0 1.11 1.6 2.836 2.836 0 0 0 .75.07h32.3a1.531 1.531 0 0 0 1.51-1.58v-6.5A2.55 2.55 0 0 0 37.969.08a4.229 4.229 0 0 0-.93-.08H2.571a2.636 2.636 0 0 0-2.4 1.71l-.17.47v32.17a2.9 2.9 0 0 0 3.131 2.161h.01c11.633-.03 23.046-.03 33.918 0a2.809 2.809 0 0 0 2.931-2.921c-.03-4.791-.02-9.052-.02-13.543zM6.072 3.061h4.8c.03 0 .07.01.08.01q2.251 2.236 4.481 4.481l.09.09h-4.74a.352.352 0 0 1-.18-.05c-1.43-1.41-2.851-2.841-4.271-4.261l-.26-.26zm9.192 0h4.751a.476.476 0 0 1 .18.04c1.52 1.5 3.031 3.021 4.541 4.531h-4.791a.294.294 0 0 1-.17-.07q-2.161-2.146-4.311-4.3l-.21-.21zm9.212 0h4.771a.431.431 0 0 1 .15.03c1.52 1.51 3.041 3.031 4.551 4.541h-4.751a.269.269 0 0 1-.15-.03c-1.43-1.41-2.841-2.831-4.291-4.271l-.28-.28zm9.382.02h3.071V6.15z"/>
    <path data-name="Path 4097" d="M16.335 13.459a2.682 2.682 0 0 0-4.18 2.41v12.57a3.491 3.491 0 0 0 .05.71 2.617 2.617 0 0 0 2.59 2.14 2.944 2.944 0 0 0 1.47-.41q5.475-3.15 10.95-6.32a2.8 2.8 0 0 0 1.51-2.41 2.771 2.771 0 0 0-1.52-2.41q-5.43-3.15-10.88-6.28zm8.6 8.7a.283.283 0 0 1-.13.22l-9.13 5.27a.256.256 0 0 1-.26 0 .253.253 0 0 1-.13-.23v-10.55a.268.268 0 0 1 .13-.23.283.283 0 0 1 .13-.04.179.179 0 0 1 .13.04l9.13 5.27a.254.254 0 0 1 .13.23z"/>
</svg>
