<svg xmlns="http://www.w3.org/2000/svg" width="40" height="36.517" viewBox="0 0 40 36.517">
    <defs>
        <clipPath id="0xbiptc97a">
            <path data-name="Rectangle 1863" style="fill:none" d="M0 0h40v36.517H0z"/>
        </clipPath>
    </defs>
    <g data-name="Group 6280" style="clip-path:url(#0xbiptc97a)">
        <path data-name="Path 4242" d="M31.217 28.279a2.814 2.814 0 0 0-2.817 2.814V33.7a2.814 2.814 0 0 0 5.628 0v-2.607a2.814 2.814 0 0 0-2.814-2.814"/>
        <path data-name="Path 4243" d="M39.164 6.776 33.282.894a2.834 2.834 0 0 0-.991-.641A2.848 2.848 0 0 0 29.1.831l-5.879 5.882a2.856 2.856 0 0 0 .191 4.212 2.994 2.994 0 0 0 3.991-.317l.905-.9v11.671a2.994 2.994 0 0 0 2.6 3.047 2.857 2.857 0 0 0 3.113-2.844V9.708l.963.963a3 3 0 0 0 3.992.317 2.857 2.857 0 0 0 .19-4.212"/>
        <path data-name="Path 4244" d="M8.832 8.238a2.814 2.814 0 0 0 2.814-2.814V2.813a2.814 2.814 0 0 0-5.628 0v2.611a2.814 2.814 0 0 0 2.814 2.814"/>
        <path data-name="Path 4245" d="m12.6 25.846-.963.963V14.935a2.856 2.856 0 0 0-3.113-2.843 2.993 2.993 0 0 0-2.6 3.046v11.676l-.9-.9a3 3 0 0 0-3.992-.317A2.857 2.857 0 0 0 .836 29.8l5.882 5.882a2.848 2.848 0 0 0 3.188.578 2.839 2.839 0 0 0 .99-.641l5.883-5.882a2.857 2.857 0 0 0-.191-4.212 2.994 2.994 0 0 0-3.991.317"/>
    </g>
</svg>
